<svg width="77" height="32" viewBox="0 0 77 32" fill="none" xmlns="http://www.w3.org/2000/svg">
<path d="M18.2573 15.232H17.5384C17.2509 18.1696 16.8483 21.7408 11.7871 21.7408H9.45778C8.10621 21.7408 8.0487 21.5392 8.0487 20.5888V5.29599C8.0487 4.31679 8.0487 3.91359 10.7518 3.91359H11.7008V3.04959C10.6656 3.13599 8.07745 3.13599 6.89843 3.13599C5.77691 3.13599 3.53389 3.13599 2.55616 3.04959V3.91359H3.21756C5.43183 3.91359 5.48935 4.23039 5.48935 5.26719V20.3872C5.48935 21.424 5.43183 21.7408 3.21756 21.7408H2.55616V22.6336H17.4809L18.2573 15.232Z" fill="black"/>
<path d="M17.7685 3.0208C17.6535 2.6752 17.5959 2.56 17.2221 2.56C16.8483 2.56 16.762 2.6752 16.647 3.0208L12.0171 14.7712C11.8158 15.2608 11.4708 16.1536 9.68783 16.1536V16.8736H14.1451V16.1536C13.2537 16.1536 12.7073 15.7504 12.7073 15.1744C12.7073 15.0304 12.736 14.9728 12.7936 14.7712L13.7713 12.2944H19.4651L20.6154 15.232C20.6729 15.3472 20.7304 15.4912 20.7304 15.5776C20.7304 16.1536 19.6377 16.1536 19.0913 16.1536V16.8736H24.7564V16.1536H24.3538C23.0022 16.1536 22.8584 15.952 22.6571 15.376L17.7685 3.0208ZM16.6182 5.0656L19.1776 11.5744H14.0589L16.6182 5.0656Z" fill="black"/>
<path d="M40.8026 3.22241H23.2898L22.7722 9.67361H23.4623C23.8649 5.03681 24.2963 4.08641 28.6385 4.08641C29.1562 4.08641 29.9038 4.08641 30.1914 4.14401C30.7953 4.25921 30.7953 4.57601 30.7953 5.23841V20.3584C30.7953 21.3376 30.7953 21.7408 27.7758 21.7408H26.6256V22.6336C27.8046 22.5472 30.709 22.5472 32.0318 22.5472C33.3546 22.5472 36.3166 22.5472 37.4956 22.6336V21.7408H36.3453C33.3259 21.7408 33.3259 21.3376 33.3259 20.3584V5.23841C33.3259 4.66241 33.3259 4.25921 33.8435 4.14401C34.1598 4.08641 34.9363 4.08641 35.4826 4.08641C39.7962 4.08641 40.2275 5.03681 40.6301 9.67361H41.349L40.8026 3.22241Z" fill="black"/>
<path d="M56.2163 21.712H55.4973C54.7784 26.1184 54.117 28.2208 49.1996 28.2208H45.4037C44.0522 28.2208 43.9946 28.0192 43.9946 27.0688V19.408H46.554C49.3434 19.408 49.6597 20.3296 49.6597 22.7776H50.3786V15.1744H49.6597C49.6597 17.6224 49.3434 18.5152 46.554 18.5152H43.9946V11.632C43.9946 10.6816 44.0522 10.48 45.4037 10.48H49.0846C53.4844 10.48 54.2321 12.064 54.6922 16.0672H55.4111L54.6059 9.616H38.5021V10.48H39.1635C41.3778 10.48 41.4353 10.7968 41.4353 11.8336V26.8672C41.4353 27.904 41.3778 28.2208 39.1635 28.2208H38.5021V29.1136H55.0085L56.2163 21.712Z" fill="black"/>
<path d="M64.872 11.5456L68.8117 5.78559C69.4156 4.86399 70.3933 3.94239 72.9527 3.91359V3.04959H66.1086V3.91359C67.2589 3.94239 67.8915 4.57599 67.8915 5.23839C67.8915 5.52639 67.834 5.58399 67.6327 5.90079L64.3544 10.7392L60.6736 5.20959C60.616 5.12319 60.4723 4.89279 60.4723 4.77759C60.4723 4.43199 61.1049 3.94239 62.3127 3.91359V3.04959C61.335 3.13599 59.2357 3.13599 58.143 3.13599C57.2515 3.13599 55.4686 3.10719 54.4046 3.04959V3.91359H54.951C56.5326 3.91359 57.079 4.11519 57.6253 4.92159L62.8878 12.8992L58.2005 19.84C57.7979 20.416 56.9352 21.7408 54.0595 21.7408V22.6336H60.9036V21.7408C59.5808 21.712 59.0919 20.9344 59.0919 20.416C59.0919 20.1568 59.1782 20.0416 59.3795 19.7248L63.4342 13.7056L67.9778 20.56C68.0353 20.6752 68.1216 20.7904 68.1216 20.8768C68.1216 21.2224 67.4889 21.712 66.2524 21.7408V22.6336C67.2589 22.5472 69.3581 22.5472 70.4221 22.5472C71.6299 22.5472 72.9527 22.576 74.1605 22.6336V21.7408H73.6141C72.1188 21.7408 71.5149 21.5968 70.911 20.704L64.872 11.5456Z" fill="black"/>
</svg>
